<?xml version="1.0" encoding="UTF-8"?>
<svg version="1.1" xmlns="http://www.w3.org/2000/svg" width="64" height="64">
<path d="M0 0 C0.91517395 -0.00807175 1.8303479 -0.01614349 2.77325439 -0.02445984 C4.7134003 -0.03830504 6.65357061 -0.04902524 8.59375 -0.05688477 C11.55255748 -0.07407025 14.51023967 -0.11794882 17.46875 -0.16210938 C19.35415845 -0.17223876 21.23957641 -0.1807541 23.125 -0.1875 C24.00645691 -0.20500809 24.88791382 -0.22251617 25.79608154 -0.24055481 C31.31606657 -0.22119053 34.45282329 0.5536173 38.828125 4.23828125 C43.65319636 9.71538928 44.00701775 13.25843737 44.06640625 20.41015625 C44.074478 21.3253302 44.08254974 22.24050415 44.09086609 23.18341064 C44.10471129 25.12355655 44.11543149 27.06372686 44.12329102 29.00390625 C44.1404765 31.96271373 44.18435507 34.92039592 44.22851562 37.87890625 C44.23864501 39.7643147 44.24716035 41.64973266 44.25390625 43.53515625 C44.27141434 44.41661316 44.28892242 45.29807007 44.30696106 46.20623779 C44.28759678 51.72622282 43.51278895 54.86297954 39.828125 59.23828125 C34.35101697 64.06335261 30.80796888 64.417174 23.65625 64.4765625 C22.74107605 64.48463425 21.8259021 64.49270599 20.88299561 64.50102234 C18.9428497 64.51486754 17.00267939 64.52558774 15.0625 64.53344727 C12.10369252 64.55063275 9.14601033 64.59451132 6.1875 64.63867188 C4.30209155 64.64880126 2.41667359 64.6573166 0.53125 64.6640625 C-0.35020691 64.68157059 -1.23166382 64.69907867 -2.13983154 64.71711731 C-7.65981657 64.69775303 -10.79657329 63.9229452 -15.171875 60.23828125 C-19.99694636 54.76117322 -20.35076775 51.21812513 -20.41015625 44.06640625 C-20.418228 43.1512323 -20.42629974 42.23605835 -20.43461609 41.29315186 C-20.44846129 39.35300595 -20.45918149 37.41283564 -20.46704102 35.47265625 C-20.4842265 32.51384877 -20.52810507 29.55616658 -20.57226562 26.59765625 C-20.58239501 24.7122478 -20.59091035 22.82682984 -20.59765625 20.94140625 C-20.61516434 20.05994934 -20.63267242 19.17849243 -20.65071106 18.27032471 C-20.63134678 12.75033968 -19.85653895 9.61358296 -16.171875 5.23828125 C-10.69476697 0.41320989 -7.15171888 0.0593885 0 0 Z " fill="#010101" transform="translate(20.171875,-0.23828125)"/>
<path d="M0 0 C11.62228405 0.88221958 23.94614926 4.8918454 33.2421875 12.0546875 C35.80299401 15.89589726 36.00111459 17.50112498 35.2421875 22.0546875 C30.46994878 28.30246521 23.33755483 31.22022169 16.2421875 34.0546875 C15.11425781 34.53421875 13.98632812 35.01375 12.82421875 35.5078125 C3.10102026 39.50695855 3.10102026 39.50695855 -1.7578125 38.0546875 C-2.0878125 36.4046875 -2.4178125 34.7546875 -2.7578125 33.0546875 C1.27688568 30.41180381 5.4702648 28.77171908 9.9921875 27.1796875 C16.0792255 24.97695799 21.73922751 22.5093235 27.2421875 19.0546875 C21.54549215 12.27384598 9.873609 10.51551095 1.60546875 8.73046875 C-0.7578125 8.0546875 -0.7578125 8.0546875 -2.7578125 6.0546875 C-2.9453125 3.4921875 -2.9453125 3.4921875 -2.7578125 1.0546875 C-1.7578125 0.0546875 -1.7578125 0.0546875 0 0 Z " fill="#EDEDED" transform="translate(17.7578125,12.9453125)"/>
</svg>
